<svg width="92" height="48" viewBox="0 0 92 48" fill="none" xmlns="http://www.w3.org/2000/svg">
<path d="M8.544 32.24C7.072 32.24 5.792 32 4.704 31.52C3.616 31.04 2.768 30.32 2.16 29.36C1.552 28.384 1.216 27.168 1.152 25.712C1.136 25.024 1.128 24.336 1.128 23.648C1.128 22.96 1.136 22.264 1.152 21.56C1.216 20.12 1.552 18.912 2.16 17.936C2.784 16.944 3.64 16.2 4.728 15.704C5.816 15.208 7.088 14.96 8.544 14.96C9.984 14.96 11.248 15.208 12.336 15.704C13.44 16.2 14.304 16.944 14.928 17.936C15.552 18.912 15.888 20.12 15.936 21.56C15.968 22.264 15.984 22.96 15.984 23.648C15.984 24.336 15.968 25.024 15.936 25.712C15.872 27.168 15.536 28.384 14.928 29.36C14.32 30.32 13.472 31.04 12.384 31.52C11.296 32 10.016 32.24 8.544 32.24ZM8.544 28.784C9.392 28.784 10.08 28.528 10.608 28.016C11.152 27.504 11.44 26.688 11.472 25.568C11.504 24.864 11.52 24.2 11.52 23.576C11.52 22.952 11.504 22.304 11.472 21.632C11.44 20.88 11.296 20.272 11.04 19.808C10.8 19.328 10.464 18.976 10.032 18.752C9.6 18.528 9.104 18.416 8.544 18.416C8 18.416 7.512 18.528 7.08 18.752C6.648 18.976 6.304 19.328 6.048 19.808C5.792 20.272 5.648 20.88 5.616 21.632C5.6 22.304 5.592 22.952 5.592 23.576C5.592 24.2 5.6 24.864 5.616 25.568C5.664 26.688 5.952 27.504 6.48 28.016C7.008 28.528 7.696 28.784 8.544 28.784ZM19.3659 32C19.1899 32 19.0459 31.944 18.9339 31.832C18.8219 31.72 18.7659 31.576 18.7659 31.4V15.8C18.7659 15.624 18.8219 15.48 18.9339 15.368C19.0459 15.256 19.1899 15.2 19.3659 15.2H25.8939C27.9579 15.2 29.5819 15.68 30.7659 16.64C31.9659 17.584 32.5659 18.928 32.5659 20.672C32.5659 21.808 32.2859 22.768 31.7259 23.552C31.1819 24.336 30.4619 24.928 29.5659 25.328L32.8779 31.232C32.9259 31.328 32.9499 31.416 32.9499 31.496C32.9499 31.624 32.8939 31.744 32.7819 31.856C32.6859 31.952 32.5659 32 32.4219 32H29.2539C28.9499 32 28.7259 31.928 28.5819 31.784C28.4379 31.624 28.3339 31.48 28.2699 31.352L25.5339 26.072H23.0619V31.4C23.0619 31.576 23.0059 31.72 22.8939 31.832C22.7819 31.944 22.6379 32 22.4619 32H19.3659ZM23.0619 22.688H25.8459C26.5979 22.688 27.1579 22.504 27.5259 22.136C27.9099 21.768 28.1019 21.264 28.1019 20.624C28.1019 20 27.9179 19.496 27.5499 19.112C27.1979 18.728 26.6299 18.536 25.8459 18.536H23.0619V22.688ZM42.2254 32.24C40.7054 32.24 39.3934 31.992 38.2894 31.496C37.2014 30.984 36.3534 30.248 35.7454 29.288C35.1534 28.312 34.8254 27.128 34.7614 25.736C34.7454 25.048 34.7374 24.32 34.7374 23.552C34.7374 22.768 34.7454 22.024 34.7614 21.32C34.8254 19.96 35.1614 18.808 35.7694 17.864C36.3774 16.92 37.2334 16.2 38.3374 15.704C39.4414 15.208 40.7374 14.96 42.2254 14.96C43.4254 14.96 44.4894 15.112 45.4174 15.416C46.3454 15.704 47.1214 16.096 47.7454 16.592C48.3854 17.088 48.8654 17.632 49.1854 18.224C49.5214 18.816 49.6974 19.4 49.7134 19.976C49.7294 20.12 49.6814 20.24 49.5694 20.336C49.4734 20.432 49.3534 20.48 49.2094 20.48H45.7054C45.5294 20.48 45.3934 20.456 45.2974 20.408C45.2174 20.344 45.1454 20.256 45.0814 20.144C44.9694 19.904 44.8014 19.656 44.5774 19.4C44.3694 19.128 44.0734 18.896 43.6894 18.704C43.3214 18.512 42.8334 18.416 42.2254 18.416C41.3134 18.416 40.5934 18.656 40.0654 19.136C39.5534 19.616 39.2734 20.384 39.2254 21.44C39.1774 22.816 39.1774 24.208 39.2254 25.616C39.2734 26.736 39.5694 27.544 40.1134 28.04C40.6574 28.536 41.3774 28.784 42.2734 28.784C42.8814 28.784 43.4174 28.68 43.8814 28.472C44.3614 28.264 44.7374 27.944 45.0094 27.512C45.2814 27.064 45.4174 26.496 45.4174 25.808V25.352H43.1614C42.9854 25.352 42.8334 25.296 42.7054 25.184C42.5934 25.056 42.5374 24.904 42.5374 24.728V22.952C42.5374 22.776 42.5934 22.632 42.7054 22.52C42.8334 22.392 42.9854 22.328 43.1614 22.328H49.2094C49.3854 22.328 49.5294 22.392 49.6414 22.52C49.7534 22.632 49.8094 22.776 49.8094 22.952V25.688C49.8094 27.064 49.4974 28.24 48.8734 29.216C48.2494 30.192 47.3614 30.944 46.2094 31.472C45.0734 31.984 43.7454 32.24 42.2254 32.24Z" fill="#1E1E1E"/>
<path d="M52 29C52 27.3431 53.3431 26 55 26C56.6569 26 58 27.3431 58 29C58 30.6569 56.6569 32 55 32H53.2C52.5373 32 52 31.4627 52 30.8V29Z" fill="#353DFF"/>
<rect x="58" y="10" width="34" height="15" rx="4" fill="#C9CBFF"/>
<path d="M67.51 21.1C67.2167 21.1 66.9467 21.0433 66.7 20.93C66.46 20.8167 66.2567 20.66 66.09 20.46C65.9233 20.2533 65.8 20.0233 65.72 19.77L65.85 19.6L65.77 21H64.83V13.75H65.9V17.26L65.78 17.09C65.9067 16.7433 66.1233 16.46 66.43 16.24C66.7367 16.0133 67.1067 15.9 67.54 15.9C67.94 15.9 68.3067 16.0033 68.64 16.21C68.98 16.4167 69.2467 16.7133 69.44 17.1C69.6333 17.4867 69.73 17.9567 69.73 18.51C69.73 19.05 69.63 19.5133 69.43 19.9C69.2367 20.2867 68.97 20.5833 68.63 20.79C68.2967 20.9967 67.9233 21.1 67.51 21.1ZM67.28 20.24C67.7133 20.24 68.05 20.0867 68.29 19.78C68.5367 19.4667 68.66 19.04 68.66 18.5C68.66 17.96 68.54 17.5367 68.3 17.23C68.06 16.9233 67.7233 16.77 67.29 16.77C67.01 16.77 66.7667 16.8433 66.56 16.99C66.3533 17.13 66.19 17.33 66.07 17.59C65.9567 17.85 65.9 18.16 65.9 18.52C65.9 18.8733 65.9567 19.18 66.07 19.44C66.1833 19.6933 66.3433 19.89 66.55 20.03C66.7633 20.17 67.0067 20.24 67.28 20.24ZM73.2995 21.1C72.7995 21.1 72.3595 20.9967 71.9795 20.79C71.5995 20.5833 71.3029 20.2867 71.0895 19.9C70.8829 19.5067 70.7795 19.04 70.7795 18.5C70.7795 17.96 70.8829 17.4967 71.0895 17.11C71.3029 16.7167 71.5962 16.4167 71.9695 16.21C72.3429 16.0033 72.7662 15.9 73.2395 15.9C73.7262 15.9 74.1395 16 74.4795 16.2C74.8195 16.4 75.0795 16.6733 75.2595 17.02C75.4395 17.3667 75.5295 17.76 75.5295 18.2C75.5295 18.32 75.5262 18.4333 75.5195 18.54C75.5129 18.6467 75.5029 18.74 75.4895 18.82H71.4695V18H75.0195L74.4895 18.16C74.4895 17.7067 74.3762 17.36 74.1495 17.12C73.9229 16.8733 73.6129 16.75 73.2195 16.75C72.9329 16.75 72.6829 16.8167 72.4695 16.95C72.2562 17.0833 72.0929 17.2833 71.9795 17.55C71.8662 17.81 71.8095 18.13 71.8095 18.51C71.8095 18.8833 71.8695 19.2 71.9895 19.46C72.1095 19.72 72.2795 19.9167 72.4995 20.05C72.7195 20.1833 72.9795 20.25 73.2795 20.25C73.6129 20.25 73.8829 20.1867 74.0895 20.06C74.2962 19.9333 74.4595 19.7567 74.5795 19.53L75.4295 19.93C75.3095 20.17 75.1462 20.38 74.9395 20.56C74.7395 20.7333 74.4995 20.8667 74.2195 20.96C73.9395 21.0533 73.6329 21.1 73.2995 21.1ZM78.2236 14.53V19.5C78.2236 19.7467 78.2869 19.9267 78.4136 20.04C78.5469 20.1533 78.7236 20.21 78.9436 20.21C79.1236 20.21 79.2803 20.1833 79.4136 20.13C79.5469 20.07 79.6703 19.99 79.7836 19.89L80.0236 20.67C79.8703 20.8033 79.6803 20.91 79.4536 20.99C79.2336 21.0633 78.9869 21.1 78.7136 21.1C78.4269 21.1 78.1636 21.0533 77.9236 20.96C77.6836 20.8667 77.4969 20.7167 77.3636 20.51C77.2303 20.2967 77.1603 20.02 77.1536 19.68V14.83L78.2236 14.53ZM79.9436 16V16.84H76.1936V16H79.9436ZM83.9212 17.79C83.9212 17.4567 83.8278 17.2 83.6412 17.02C83.4612 16.8333 83.2112 16.74 82.8912 16.74C82.5912 16.74 82.3345 16.81 82.1212 16.95C81.9078 17.09 81.7512 17.3167 81.6512 17.63L80.7512 17.25C80.8778 16.8433 81.1245 16.5167 81.4912 16.27C81.8645 16.0233 82.3445 15.9 82.9312 15.9C83.3312 15.9 83.6845 15.9667 83.9912 16.1C84.2978 16.2267 84.5378 16.42 84.7112 16.68C84.8912 16.94 84.9812 17.2733 84.9812 17.68V19.91C84.9812 20.1567 85.1045 20.28 85.3512 20.28C85.4712 20.28 85.5878 20.2633 85.7012 20.23L85.6412 20.97C85.4878 21.0433 85.2945 21.08 85.0612 21.08C84.8478 21.08 84.6545 21.0433 84.4812 20.97C84.3145 20.89 84.1812 20.7733 84.0812 20.62C83.9878 20.46 83.9412 20.2633 83.9412 20.03V19.96L84.1612 19.95C84.1012 20.21 83.9778 20.4267 83.7912 20.6C83.6045 20.7667 83.3878 20.8933 83.1412 20.98C82.8945 21.06 82.6445 21.1 82.3912 21.1C82.0778 21.1 81.7945 21.05 81.5412 20.95C81.2945 20.85 81.0978 20.7 80.9512 20.5C80.8112 20.2933 80.7412 20.04 80.7412 19.74C80.7412 19.3667 80.8612 19.06 81.1012 18.82C81.3478 18.58 81.6945 18.4167 82.1412 18.33L84.0812 17.95L84.0712 18.7L82.6612 18.99C82.3812 19.0433 82.1712 19.12 82.0312 19.22C81.8912 19.32 81.8212 19.4667 81.8212 19.66C81.8212 19.8467 81.8912 19.9967 82.0312 20.11C82.1778 20.2167 82.3712 20.27 82.6112 20.27C82.7778 20.27 82.9378 20.25 83.0912 20.21C83.2512 20.17 83.3945 20.1067 83.5212 20.02C83.6478 19.9267 83.7445 19.81 83.8112 19.67C83.8845 19.5233 83.9212 19.35 83.9212 19.15V17.79Z" fill="#353DFF"/>
</svg>
